<svg version="1.0" xmlns="http://www.w3.org/2000/svg"
 width="1136.000000pt" height="1280.000000pt" viewBox="0 0 1136.000000 1280.000000"
 preserveAspectRatio="xMidYMid meet">
<metadata>

</metadata>
<g transform="translate(0.000000,1280.000000) scale(0.100000,-0.100000)"
fill="#3b82f6" stroke="none">
<path d="M1210 12718 c-628 -964 -763 -1491 -506 -1973 97 -184 272 -376 489
-538 64 -49 117 -91 117 -95 0 -3 -21 -58 -46 -120 -127 -314 -228 -677 -289
-1039 -49 -295 -85 -719 -85 -1009 l0 -121 -82 -69 c-199 -166 -436 -426 -550
-604 -262 -406 -318 -896 -188 -1640 75 -424 134 -695 200 -910 201 -655 396
-1163 560 -1460 189 -344 396 -545 555 -541 185 4 416 179 652 496 41 55 91
126 111 158 19 32 39 54 43 50 4 -4 58 -91 119 -192 347 -576 857 -1217 1080
-1360 247 -159 633 -260 1144 -301 71 -5 137 -10 147 -10 16 0 17 -3 5 -33
-21 -50 -46 -174 -54 -266 l-7 -84 -70 -41 c-86 -51 -261 -223 -326 -321 -95
-144 -139 -258 -139 -363 0 -29 6 -65 14 -80 56 -108 250 -54 434 120 l49 47
7 -72 c17 -186 85 -321 173 -343 94 -24 213 109 268 299 l17 58 48 -68 c57
-82 151 -173 208 -202 24 -12 60 -21 87 -21 228 0 130 543 -154 861 l-50 56
10 59 c12 74 13 274 1 335 l-9 46 126 6 c69 4 189 7 267 7 171 0 356 14 528
40 71 11 130 20 132 20 2 0 -1 -11 -6 -24 -21 -57 -31 -226 -20 -344 7 -64 13
-119 16 -121 2 -2 -19 -28 -45 -57 -68 -74 -133 -175 -187 -288 -111 -235
-126 -494 -33 -560 33 -22 102 -20 152 5 52 27 172 146 217 217 l34 52 26 -77
c46 -137 99 -220 164 -258 135 -79 236 43 271 333 l7 52 51 -46 c77 -69 159
-122 232 -150 76 -28 105 -30 150 -8 146 69 30 410 -226 666 -68 68 -216 178
-240 178 -5 0 -9 21 -9 48 0 120 -54 328 -111 431 -17 29 -27 57 -22 61 4 4
44 19 87 34 332 116 741 339 1061 579 383 288 771 680 1066 1075 40 54 75 101
79 105 4 5 18 -9 31 -30 111 -184 274 -335 409 -379 171 -56 421 114 680 461
233 313 494 795 717 1325 36 85 106 249 155 364 239 559 325 822 390 1196 7
45 12 151 12 265 -1 271 -30 400 -146 650 -237 512 -374 712 -725 1063 -144
144 -183 188 -183 209 0 34 -44 287 -75 428 -81 373 -213 755 -378 1089 l-79
161 38 30 c319 254 486 460 570 708 134 395 -30 907 -549 1714 -77 120 -95
142 -112 137 -103 -28 -487 -157 -608 -203 -424 -163 -810 -353 -1154 -567
-57 -35 -105 -64 -108 -64 -3 0 -79 29 -168 64 -505 199 -996 310 -1657 373
-232 22 -945 25 -1170 5 -603 -53 -1101 -165 -1534 -344 -67 -28 -138 -57
-158 -65 l-37 -16 -88 55 c-316 198 -738 405 -1133 555 -206 79 -323 118 -620
208 -11 4 -32 -21 -70 -77z"/>
</g>
</svg>
